<?xml version="1.0" standalone="no"?>
<!DOCTYPE svg PUBLIC "-//W3C//DTD SVG 20010904//EN"
 "http://www.w3.org/TR/2001/REC-SVG-20010904/DTD/svg10.dtd">
<svg version="1.0" xmlns="http://www.w3.org/2000/svg"
 width="500.000000pt" height="500.000000pt" viewBox="0 0 500.000000 500.000000"
 preserveAspectRatio="xMidYMid meet">

<g transform="translate(0.000000,500.000000) scale(0.100000,-0.100000)"
fill="#000000" stroke="none">
<path d="M2375 4574 c-87 -6 -248 -25 -305 -36 -85 -15 -192 -39 -220 -48 -14
-4 -45 -13 -70 -20 -68 -20 -237 -89 -310 -128 -332 -176 -549 -471 -657 -891
l-27 -108 39 -54 c21 -30 40 -56 42 -58 2 -4 72 -14 378 -56 105 -14 217 -30
251 -35 85 -14 82 -15 95 33 146 529 331 669 889 670 218 0 328 -17 467 -71
252 -98 343 -248 343 -567 0 -69 -3 -125 -6 -125 -3 0 -47 -11 -97 -24 -243
-64 -527 -113 -1002 -172 -495 -61 -746 -138 -1005 -309 -146 -97 -286 -253
-372 -415 -104 -196 -149 -427 -128 -652 23 -234 96 -424 229 -590 193 -243
456 -390 791 -442 261 -40 373 -44 603 -17 365 43 686 171 989 394 36 27 70
49 75 48 4 0 12 -16 16 -33 21 -85 54 -180 88 -255 l38 -83 363 0 364 0 39 68
c22 37 42 68 45 70 3 1 -13 40 -35 86 -58 117 -102 263 -120 396 -17 127 -25
429 -30 1169 -8 1227 -11 1290 -69 1471 -53 167 -121 286 -225 393 -189 196
-465 316 -857 372 -104 15 -498 27 -609 19z m915 -2333 c0 -135 -20 -322 -44
-414 -63 -238 -230 -432 -482 -561 -158 -80 -327 -117 -544 -117 -271 0 -422
49 -542 174 -96 100 -141 243 -121 378 28 176 140 307 320 371 125 44 204 60
643 128 74 11 155 25 180 30 25 5 83 16 130 25 106 20 351 81 405 100 22 8 43
14 48 15 4 0 7 -58 7 -129z"/>
</g>
</svg>
